<svg xmlns="http://www.w3.org/2000/svg" width="64" height="64" viewBox="0 0 6400 6400"><path d="M3205-1c-867 0-976 4-1317 19-340 16-573 70-776 149-210 82-388 191-566 369-177 177-287 355-368 566-79 203-133 435-149 775-15 341-19 450-19 1318 0 867 4 976 19 1317 16 340 70 573 149 776 81 210 191 388 368 566 178 177 356 287 566 368 203 79 436 133 776 149 341 15 450 19 1317 19 868 0 977-4 1318-19 340-16 572-70 775-149 211-81 389-191 566-368 178-178 287-356 369-566 79-203 133-436 149-776 15-341 19-450 19-1317 0-868-4-977-19-1318-16-340-70-572-149-775-82-211-191-389-369-566-177-178-355-287-566-369-203-79-435-133-775-149C4182 3 4073-1 3205-1zm0 576c854 0 955 3 1292 19 311 14 480 66 593 110 149 58 255 127 367 239s181 218 239 367c44 113 96 282 110 593 16 337 19 438 19 1292 0 853-3 954-19 1291-14 311-66 481-110 593-58 149-127 256-239 368-112 111-218 181-367 239-113 43-282 95-593 110-337 15-438 18-1292 18-853 0-954-3-1291-18-311-15-481-67-593-110-149-58-256-128-368-239-111-112-181-219-239-368-43-112-95-282-110-593-15-337-18-438-18-1291 0-854 3-955 18-1292 15-311 67-480 110-593 58-149 128-255 239-367 112-112 219-181 368-239 112-44 282-96 593-110 337-16 438-19 1291-19z"/><path d="M3205 4260c-588 0-1065-477-1065-1065 0-589 477-1065 1065-1065 589 0 1065 476 1065 1065 0 588-476 1065-1065 1065zm0-2706c-906 0-1641 734-1641 1641 0 906 735 1641 1641 1641 907 0 1641-735 1641-1641 0-907-734-1641-1641-1641zM5294 1489c0 212-171 383-383 383s-383-171-383-383 171-383 383-383 383 171 383 383z"/></svg>