<?xml version="1.0" encoding="utf-8"?>
<svg version="1.2" baseProfile="tiny" xmlns="http://www.w3.org/2000/svg" xmlns:xlink="http://www.w3.org/1999/xlink" x="0px"
	 y="0px" viewBox="0 0 595.3 841.9" xml:space="preserve">
	<polygon fill="#DBA2B0" points="595.3,150.7 381.9,185.1 595.3,261.7 	"/>
	<path d="M104.5,104.5V0.1h65v24.6h-33.6v15.2h31.5v24.6h-31.5v15.4h36v24.6H104.5z"/>
	<path d="M281,34.5c0,7.1-1.8,13.5-5.4,19c-3.6,5.5-8.8,9.8-15.5,12.9c-6.7,3-14.5,4.6-23.4,4.6h-9.6v33.6h-31.5V0.1h42.8
		c14.7,0,25.5,2.8,32.3,8.4C277.6,14,281,22.7,281,34.5z M247.7,35.6c0-4.3-1.2-7.5-3.7-9.7c-2.5-2.2-6.1-3.3-10.9-3.3h-6v25.8h7.1
		C243.2,48.4,247.7,44.1,247.7,35.6z"/>
	<path d="M355.2,24.7v79.8h-31.6V24.7h-29.2V0.1h90.4v24.6H355.2z"/>
	<path d="M477.7,104.5V60.7c0-6.4,0.1-12.2,0.4-17.3h-0.3c-1,1.7-2.1,3.4-3.3,5.3c-1.3,1.9-14.8,20.5-40.6,55.9h-27.6V0.1h29.1v45.5
		c0,5.6-0.1,9.8-0.4,12.4h0.3c0.2-0.4,0.4-0.9,0.8-1.5c0.3-0.5,2.2-3.4,5.8-8.5l35.3-47.9h29.7v104.4H477.7z"/>
	<path d="M160.1,238.5v-43.8c0-6.4,0.1-12.2,0.4-17.3h-0.3c-1,1.7-2.1,3.4-3.3,5.3c-1.3,1.9-14.8,20.5-40.6,55.9H88.7V134.1h29.1
		v45.5c0,5.6-0.1,9.8-0.4,12.4h0.3c0.2-0.4,0.4-0.9,0.8-1.5c0.3-0.5,2.2-3.4,5.8-8.5l35.3-47.9h29.7v104.4H160.1z"/>
	<path d="M276.5,238.5l-23.2-44.1c-1.6-3.5-2.5-5.9-2.8-7.2h-0.4v51.3h-31.5V134.1h31.5v49.7h0.4c0.9-2.6,2-5,3.1-7.3l20.8-42.4
		h37.3l-29.6,49.8l32.5,54.6H276.5z"/>
	<path d="M396,238.5l-4.6-19.2h-31.2l-5,19.2h-34l36-104.4h39l33.9,104.4H396z M376.2,156.8h-0.7c-0.1,1.2-0.4,3.1-1,5.8
		c-0.6,2.7-3.5,14.1-8.8,34.4h20l-7.3-28.4C377.3,164.4,376.6,160.5,376.2,156.8z"/>
	<path d="M504.2,158.7v79.8h-31.6v-79.8h-29.2v-24.6h90.4v24.6H504.2z"/>
	<path d="M53.7,154.8c-8.1-7.3-19.4-11-33.9-11h-4.1v-13.1H0.1v111.1h15.7V229H19c9.8,0,18.2-1.7,25.3-5.2c7-3.5,12.4-8.5,16.1-15
		c3.7-6.5,5.5-14.2,5.5-23C65.8,172.4,61.8,162.1,53.7,154.8z M28.4,201.3c-2.8,3.5-6.8,5.2-11.8,5.2h-0.8v-40.1H17
		c4.9,0,8.7,1.8,11.5,5.4c2.8,3.6,4.2,8.6,4.2,14.8C32.6,192.9,31.2,197.8,28.4,201.3z"/>
	<path d="M23.1,5.3C14.4,10,7.6,16.7,2.9,25.3c-1.1,1.9-2,3.9-2.8,5.9v46.3c0.6,1.5,1.3,2.9,2,4.3c4.2,7.8,10.4,13.9,18.5,18.1
		c8.1,4.2,17.6,6.4,28.8,6.4c11.3,0,21.3-1.6,29.9-4.7v-28c-7.8,3.9-15.5,5.8-23.1,5.8c-8.3,0-14.8-2.4-19.8-7.2
		C31.5,67.4,29,60.8,29,52.4c0-8.4,2.5-15,7.4-20c4.9-4.9,11.7-7.4,20.2-7.4c4.1,0,8.2,0.5,12.2,1.5c4,1,7.5,2.3,10.4,4.1V1.6
		C77,1,74.7,0.5,72.3,0.1H37.1C32.1,1.2,27.4,3,23.1,5.3z"/>
	<path d="M579.5,9.8h-4c-14.7,0-26,3.7-34,11c-8,7.3-12,17.6-12,30.9c0,8.8,1.9,16.4,5.6,22.9c3.7,6.5,9.1,11.5,16.1,15
		c7,3.5,15.4,5.3,25,5.3h3.3v12.9h15.8V0.1h-15.8V9.8z M579.5,72.4h-0.7c-5,0-8.9-1.7-11.7-5.2c-2.8-3.4-4.2-8.3-4.2-14.7
		c0-6.4,1.4-11.3,4.1-14.9c2.7-3.6,6.5-5.4,11.4-5.4h1.2V72.4z"/>
	<rect x="207.6" y="727.1" width="180.9" height="16.2"/>
	<rect x="270.6" y="692.2" width="73.5" height="13.4"/>
	<rect x="198.4" y="676.4" fill="#DBA2B0" width="72.2" height="29.2"/>
	<rect x="344.1" y="676.4" fill="#DBA2B0" width="53.1" height="29.2"/>
	<rect x="75.7" y="541.7" width="93.9" height="36.6"/>
	<rect x="328.5" y="541.7" width="195.7" height="36.6"/>
	<rect x="160.3" y="322.3" width="274.7" height="26.7"/>
	<rect x="119.5" y="374.2" width="356.3" height="26.7"/>
	<rect x="133.1" y="420.9" width="329.1" height="26.7"/>
</svg>
